<?xml version="1.0" standalone="no"?><!DOCTYPE svg PUBLIC "-//W3C//DTD SVG 1.1//EN" "http://www.w3.org/Graphics/SVG/1.1/DTD/svg11.dtd"><svg class="icon" width="200px" height="198.64px" viewBox="0 0 1031 1024" version="1.1" xmlns="http://www.w3.org/2000/svg"><path fill="#333333" d="M249.341756 541.691125a221.182009 221.182009 0 0 1-14.335871-142.846715 217.086046 217.086046 0 0 1 21.503806-55.807497 38.399654 38.399654 0 0 0-15.359861-51.19954 38.91165 38.91165 0 0 0-51.19954 15.359862 307.197235 307.197235 0 0 0-28.671742 74.239332 296.957327 296.957327 0 0 0 18.94383 192.510267 289.789392 289.789392 0 0 0 59.391465 86.527222 38.91165 38.91165 0 0 0 54.783507 0 38.399654 38.399654 0 0 0 0-54.271512 215.55006 215.55006 0 0 1-45.055594-64.511419z m767.993088 416.764249l-221.182009-219.134028a449.019959 449.019959 0 1 0-54.271512 54.271512l219.646023 219.134027a37.887659 37.887659 0 0 0 27.135756 11.263899 36.351673 36.351673 0 0 0 27.135756-11.263899 37.887659 37.887659 0 0 0 0-54.271511z m-300.0293-245.245793a373.244641 373.244641 0 1 1 0-527.867249 376.316613 376.316613 0 0 1 0 527.867249z" /></svg>