<?xml version="1.0" standalone="no"?><!DOCTYPE svg PUBLIC "-//W3C//DTD SVG 1.1//EN" "http://www.w3.org/Graphics/SVG/1.1/DTD/svg11.dtd"><svg class="icon" width="200px" height="200.00px" viewBox="0 0 1024 1024" version="1.1" xmlns="http://www.w3.org/2000/svg"><path fill="#333333" d="M915.576471 512c0-24.094118 0-42.164706-6.02353-66.258824L993.882353 373.458824c-24.094118-84.329412-66.258824-162.635294-126.494118-222.870589l-102.4 42.164706c-30.117647-30.117647-72.282353-48.188235-108.423529-66.258823L638.494118 12.047059C596.329412 6.023529 554.164706 0 512 0c-42.164706 0-84.329412 6.023529-126.494118 18.070588l-18.070588 108.42353c-36.141176 18.070588-78.305882 42.164706-108.423529 66.258823l-102.4-42.164706C96.376471 210.823529 54.211765 289.129412 30.117647 373.458824l84.329412 72.282352c0 24.094118-6.023529 42.164706-6.02353 66.258824 0 24.094118 0 42.164706 6.02353 66.258824L30.117647 650.541176c24.094118 84.329412 66.258824 162.635294 126.494118 222.870589l102.4-42.164706c30.117647 30.117647 72.282353 48.188235 108.423529 66.258823l18.070588 114.447059c42.164706 6.023529 84.329412 12.047059 126.494118 12.047059 42.164706 0 84.329412-6.023529 126.494118-18.070588l18.070588-114.447059c42.164706-18.070588 78.305882-36.141176 108.423529-66.258824l102.4 42.164706c60.235294-60.235294 102.4-138.541176 126.494118-222.870588l-84.329412-72.282353c0-18.070588 6.023529-36.141176 6.02353-60.235294zM512 722.823529c-114.447059 0-204.8-96.376471-204.8-210.823529S397.552941 301.176471 512 301.176471s204.8 96.376471 204.8 210.823529S626.447059 722.823529 512 722.823529z" /></svg>