<svg id="图层_1" data-name="图层 1" xmlns="http://www.w3.org/2000/svg" viewBox="0 0 26 26"><defs><style></style></defs><title></title><path class="cls-1" d="M15.05,22a.46.46,0,0,0-.14.23h0l-.78,2.19a.4.4,0,0,0,.07.44.48.48,0,0,0,.34.13.18.18,0,0,0,.12,0l2.48-.66,5.74-5.23L20.73,16.9Z"/><path class="cls-1" d="M24.6,15.49a1.81,1.81,0,0,0-2.41.09l-.55.5,2.17,2.21.55-.49A1.64,1.64,0,0,0,24.6,15.49Z"/><path class="cls-1" d="M21.24,2.61A1.64,1.64,0,0,0,19.56,1H2.7A1.64,1.64,0,0,0,1,2.61V22.94a.58.58,0,0,0,.38.54.62.62,0,0,0,.66-.15,20.83,20.83,0,0,1,3-2.76c.26.09.74.83,1,1.2.53.82,1.08,1.67,1.92,1.68s1.41-.8,2-1.66c.31-.43.89-1.23,1.15-1.23s.71.7,1,1.12l9.12-8Zm-11,13H5.1a.86.86,0,0,1,0-1.72h5.16a.86.86,0,0,1,0,1.72Zm6.89-4.73H5.1a.86.86,0,0,1,0-1.72h12a.86.86,0,1,1,0,1.72Zm0-4.74H5.1a.86.86,0,0,1,0-1.72h12a.86.86,0,1,1,0,1.72Z"/></svg>
