<?xml version="1.0" standalone="no"?><!DOCTYPE svg PUBLIC "-//W3C//DTD SVG 1.1//EN" "http://www.w3.org/Graphics/SVG/1.1/DTD/svg11.dtd"><svg class="icon" width="200px" height="200.00px" viewBox="0 0 1024 1024" version="1.1" xmlns="http://www.w3.org/2000/svg"><path fill="#333333" d="M512 0a512 512 0 1 0 512 512 512 512 0 0 0-512-512z m231.537778 682.666667a42.666667 42.666667 0 0 1 0 60.302222 44.942222 44.942222 0 0 1-30.151111 12.515555 42.666667 42.666667 0 0 1-30.151111-12.515555l-170.666667-170.666667-170.666667 170.666667a43.235556 43.235556 0 0 1-60.871111 0 42.666667 42.666667 0 0 1 0-60.302222l170.666667-170.666667-170.666667-170.666667a42.666667 42.666667 0 0 1 0-60.302222A43.804444 43.804444 0 0 1 341.333333 280.462222l170.666667 170.666667 170.666667-170.666667A42.666667 42.666667 0 0 1 743.537778 341.333333l-170.666667 170.666667z" /></svg>