<?xml version="1.0" standalone="no"?><!DOCTYPE svg PUBLIC "-//W3C//DTD SVG 1.1//EN" "http://www.w3.org/Graphics/SVG/1.1/DTD/svg11.dtd"><svg t="1526450633159" class="icon" style="" viewBox="0 0 1024 1024" version="1.1" xmlns="http://www.w3.org/2000/svg" p-id="3314" xmlns:xlink="http://www.w3.org/1999/xlink" width="200" height="200"><defs><style type="text/css"></style></defs><path d="M676.09599996 90.24l180.032 0 0 663.552-180.032 0 0-663.552Z" fill="#333333" p-id="3315"></path><path d="M180.224 397.632l179.968 0 0 356.16-179.968 0 0-356.16Z" fill="#333333" p-id="3316"></path><path d="M425.36533337 278.656l180.032 0 0 475.2-180.032 0 0-475.2Z" fill="#333333" p-id="3317"></path><path d="M956.59733061 1175.49381503l692.13867187 0 0 90.47241211-692.13867187 0 0-90.47241211Z" fill="#333333" p-id="3318"></path><path d="M1879.60416645 592.95416661l100.51875 0 0 522.28125-100.51875 0 0-522.28125Z" fill="#333333" p-id="3319"></path><path d="M1099.1573332 465.152l114.368 0 0 288.704-114.368 0 0-288.704Z" fill="#333333" p-id="3320"></path><path d="M1884.23541648 752.76041661l100.51875 0 0 362.41875-100.51875 0 0-362.41875Z" fill="#333333" p-id="3321"></path><path d="M171.53320313 811.63671875l689.60742187 0 0 47.8828125-689.60742187 0 0-47.8828125Z" fill="#333333" p-id="3322"></path></svg>