<?xml version="1.0" standalone="no"?><!DOCTYPE svg PUBLIC "-//W3C//DTD SVG 1.1//EN" "http://www.w3.org/Graphics/SVG/1.1/DTD/svg11.dtd"><svg t="1526450596056" class="icon" style="" viewBox="0 0 1024 1024" version="1.1" xmlns="http://www.w3.org/2000/svg" p-id="2157" xmlns:xlink="http://www.w3.org/1999/xlink" width="200" height="200"><defs><style type="text/css"></style></defs><path d="M768 800h96a48 48 0 0 0 48-48V416a48 48 0 0 0-48-48h-96a48 48 0 0 0-48 48v336a48 48 0 0 0 48 48z m-272 0h96a48 48 0 0 0 48-48V224a48 48 0 0 0-48-48h-96a48 48 0 0 0-48 48v528a48 48 0 0 0 48 48z m480 48H96V128a48 48 0 1 0-96 0v768a48 48 0 0 0 48 48h928a48 48 0 1 0 0-96z m-752-48h96a48 48 0 0 0 48-48v-96a48 48 0 0 0-48-48h-96a48 48 0 0 0-48 48v96a48 48 0 0 0 48 48z" p-id="2158"></path></svg>
