<?xml version="1.0" standalone="no"?><!DOCTYPE svg PUBLIC "-//W3C//DTD SVG 1.1//EN" "http://www.w3.org/Graphics/SVG/1.1/DTD/svg11.dtd"><svg t="1531996389249" class="icon" style="" viewBox="0 0 1024 1024" version="1.1" xmlns="http://www.w3.org/2000/svg" p-id="792" xmlns:xlink="http://www.w3.org/1999/xlink" width="200" height="200"><defs><style type="text/css"></style></defs><path d="M792.774194 900.46486067H231.225806c-54.651871 0-99.096774-44.444903-99.096774-99.096775v-412.903225c0-54.651871 44.444903-99.096774 99.096774-99.096775h561.548388c54.651871 0 99.096774 44.444903 99.096774 99.096775v412.903225c0 54.635355-44.461419 99.096774-99.096774 99.096775z m-561.548388-545.032259c-18.21729 0-33.032258 14.814968-33.032258 33.032259v412.903225c0 18.21729 14.814968 33.032258 33.032258 33.032258h561.548388c18.21729 0 33.032258-14.814968 33.032258-33.032258v-412.903225c0-18.21729-14.814968-33.032258-33.032258-33.032259H231.225806z" fill="#666666" p-id="793"></path><path d="M743.225806 801.36808567H558.790194a16.516129 16.516129 0 1 1 0-33.032258H743.225806c9.100387 0 16.516129-7.399226 16.516129-16.516129v-60.548129a16.516129 16.516129 0 1 1 33.032259 0v60.548129c0 27.317677-22.23071 49.548387-49.548388 49.548387zM677.16129 471.06202167a33.032258 33.032258 0 0 1-33.032258-33.032258v-162.51871c0-72.852645-59.276387-132.129032-132.129032-132.129032s-132.129032 59.276387-132.129032 132.129032v162.51871a33.032258 33.032258 0 0 1-66.064516 0v-162.51871c0-109.287226 88.906323-198.193548 198.193548-198.193548s198.193548 88.906323 198.193548 198.193548v162.51871a33.032258 33.032258 0 0 1-33.032258 33.032258z" fill="#666666" p-id="794"></path><path d="M346.83871 483.08576367m-61.935484 0a61.935484 61.935484 0 1 0 123.870968 0 61.935484 61.935484 0 1 0-123.870968 0Z" fill="#FFFFFF" p-id="795"></path><path d="M346.83871 577.98744067a94.637419 94.637419 0 0 1-67.138065-27.763613 95.083355 95.083355 0 0 1 0-134.309161 95.083355 95.083355 0 0 1 134.309161 0 95.116387 95.116387 0 0 1 0 134.309161A94.637419 94.637419 0 0 1 346.83871 577.98744067z m0-123.804903a28.870194 28.870194 0 0 0-20.446968 49.350194 28.936258 28.936258 0 0 0 40.877419 0 28.96929 28.96929 0 0 0 0-40.893936A28.804129 28.804129 0 0 0 346.83871 454.18253767z" fill="#666666" p-id="796"></path><path d="M677.16129 483.08576367m-61.935484 0a61.935484 61.935484 0 1 0 123.870968 0 61.935484 61.935484 0 1 0-123.870968 0Z" fill="#FFFFFF" p-id="797"></path><path d="M677.16129 577.98744067a94.637419 94.637419 0 0 1-67.138064-27.763613 95.083355 95.083355 0 0 1 0-134.309161 95.083355 95.083355 0 0 1 134.309161 0 95.116387 95.116387 0 0 1 0 134.309161A94.637419 94.637419 0 0 1 677.16129 577.98744067z m0-123.804903a28.870194 28.870194 0 0 0-20.446967 49.350194 28.936258 28.936258 0 0 0 40.877419 0 28.96929 28.96929 0 0 0 0-40.893936A28.804129 28.804129 0 0 0 677.16129 454.18253767z" fill="#666666" p-id="798"></path><path d="M776.258065 641.72318267a16.516129 16.516129 0 0 1-16.51613-16.516129v-33.032258a16.516129 16.516129 0 1 1 33.032259 0v33.032258a16.516129 16.516129 0 0 1-16.516129 16.516129z" fill="#666666" p-id="799"></path></svg>