<?xml version="1.0" standalone="no"?><!DOCTYPE svg PUBLIC "-//W3C//DTD SVG 1.1//EN" "http://www.w3.org/Graphics/SVG/1.1/DTD/svg11.dtd"><svg t="1531996642116" class="icon" style="" viewBox="0 0 1024 1024" version="1.1" xmlns="http://www.w3.org/2000/svg" p-id="675" xmlns:xlink="http://www.w3.org/1999/xlink" width="200" height="200"><defs><style type="text/css"></style></defs><path d="M462.451613 786.58064501c-182.139871 0-330.322581-148.18271-330.322581-330.32258v-132.129033c0-36.434581 29.629935-66.064516 66.064516-66.064516h528.516129c36.434581 0 66.064516 29.629935 66.064517 66.064516v132.129033c0 182.139871-148.18271 330.322581-330.322581 330.32258z m-264.258065-462.451613v132.129033c0 145.70529 118.552774 264.258065 264.258065 264.258064s264.258065-118.552774 264.258064-264.258064v-132.129033H198.193548z" fill="#666666" p-id="676"></path><path d="M462.451613 687.48387101a16.516129 16.516129 0 1 1 0-33.032258c12.750452 0 25.467871-1.205677 37.805419-3.617032a16.532645 16.532645 0 0 1 6.292645 32.421161c-14.385548 2.807742-29.233548 4.228129-44.098064 4.228129zM557.386323 665.33574201a16.516129 16.516129 0 0 1-7.333162-31.331097C618.264774 600.26219401 660.645161 532.14967701 660.645161 456.25806501a16.516129 16.516129 0 1 1 33.032258 0c0 88.526452-49.416258 168.002065-128.990967 207.376516a16.516129 16.516129 0 0 1-7.300129 1.701161zM802.403097 564.27354801H726.709677V346.80567701h75.69342c59.970065 0 108.742194 48.772129 108.742193 108.725678s-48.772129 108.742194-108.742193 108.742193z m-9.628903-66.064516h9.628903c23.535484 0 42.677677-19.142194 42.677677-42.661161s-19.142194-42.661161-42.677677-42.661161H792.774194v85.322322zM677.16129 905.11690301H247.741935a33.032258 33.032258 0 0 1 0-66.064516h429.419355a33.032258 33.032258 0 0 1 0 66.064516zM399.14529 220.87019401a33.032258 33.032258 0 0 1-33.032258-33.032259v-132.129032a33.032258 33.032258 0 0 1 66.064516 0v132.129032a33.032258 33.032258 0 0 1-33.032258 33.032259zM525.757935 220.87019401a33.032258 33.032258 0 0 1-33.032258-33.032259v-78.451612a33.032258 33.032258 0 0 1 66.064517 0v78.451612c0.016516 18.250323-14.781935 33.032258-33.032259 33.032259z" fill="#666666" p-id="677"></path></svg>