<?xml version="1.0" standalone="no"?><!DOCTYPE svg PUBLIC "-//W3C//DTD SVG 1.1//EN" "http://www.w3.org/Graphics/SVG/1.1/DTD/svg11.dtd"><svg t="1531996394417" class="icon" style="" viewBox="0 0 1024 1024" version="1.1" xmlns="http://www.w3.org/2000/svg" p-id="907" xmlns:xlink="http://www.w3.org/1999/xlink" width="200" height="200"><defs><style type="text/css"></style></defs><path d="M887.940129 418.98666667A105.009548 105.009548 0 0 0 809.290323 383.55956967h-148.314839a38.945032 38.945032 0 0 1-38.812903-38.978064v-161.858065a99.873032 99.873032 0 0 0-29.497807-71.085419 99.922581 99.922581 0 0 0-71.085419-29.497807 100.219871 100.219871 0 0 0-88.559484 53.066323L286.224516 408.28421467v508.762839h483.261936a105.125161 105.125161 0 0 0 104.134193-92.259097l39.803871-323.550967a104.943484 104.943484 0 0 0-25.484387-82.250323z m-40.084645 74.173935l-39.803871 323.550968a38.978065 38.978065 0 0 1-38.565161 34.270968H352.289032V424.93247267l138.96671-258.510451a34.304 34.304 0 0 1 30.323613-18.200774c9.182968 0 17.820903 3.600516 24.377806 10.140903 6.540387 6.540387 10.140903 15.194839 10.140904 24.377806v161.858065c0 57.922065 47.054452 105.042581 104.877419 105.04258H809.290323c11.330065 0 21.669161 4.657548 29.150967 13.113807 7.448774 8.439742 10.785032 19.224774 9.414194 30.406193z" fill="#666666" p-id="908"></path><path d="M596.546065 784.91802167H467.901935c-27.317677 0-49.548387-22.23071-49.548387-49.548387a16.516129 16.516129 0 1 0-33.032258 0c0 45.534968 37.045677 82.580645 82.580645 82.580645h128.64413a16.516129 16.516129 0 1 0 0-33.032258zM193.403871 449.64060167h125.852903v-66.064516h-125.852903a105.009548 105.009548 0 0 0-104.877419 104.87742v323.550967c0 57.922065 47.054452 105.042581 104.877419 105.042581h125.852903v-66.064516h-125.852903a38.945032 38.945032 0 0 1-38.812903-38.978065v-323.550967a38.845935 38.845935 0 0 1 38.812903-38.812904zM695.642839 784.91802167h-33.032258a16.516129 16.516129 0 1 0 0 33.032258h33.032258a16.516129 16.516129 0 1 0 0-33.032258z" fill="#666666" p-id="909"></path></svg>