<?xml version="1.0" standalone="no"?><!DOCTYPE svg PUBLIC "-//W3C//DTD SVG 1.1//EN" "http://www.w3.org/Graphics/SVG/1.1/DTD/svg11.dtd"><svg t="1531996381102" class="icon" style="" viewBox="0 0 1024 1024" version="1.1" xmlns="http://www.w3.org/2000/svg" p-id="675" xmlns:xlink="http://www.w3.org/1999/xlink" width="200" height="200"><defs><style type="text/css"></style></defs><path d="M763.524129 943.75363467h-495.483871a33.032258 33.032258 0 0 1 0-66.064516h495.483871a33.032258 33.032258 0 0 1 0 66.064516zM710.986323 828.14073167H320.561548a99.394065 99.394065 0 0 1-95.479742-72.571871L111.566452 294.07518267l207.112258 149.999484L515.765677 110.54795667l197.086968 333.510194 207.112258-149.999484-113.515355 461.52671a99.427097 99.427097 0 0 1-95.463225 72.555355zM218.756129 453.27415067l70.226581 285.580387c3.716129 13.278968 16.796903 23.221677 31.578838 23.221677h390.424775c14.63329 0 27.614968-9.761032 31.710967-23.783225l70.077936-285.002323-66.543484 47.995871a66.26271 66.26271 0 0 1-90.161548-23.436387l-140.304517-237.419355-140.304516 237.419355a66.229677 66.229677 0 0 1-90.161548 23.452903l-2.725161-1.783742-63.818323-46.245161z" fill="#666666" p-id="676"></path><path d="M385.370839 729.04395667h-25.946839a49.465806 49.465806 0 0 1-48.128-37.706322l-24.130065-98.105807a16.516129 16.516129 0 0 1 32.074323-7.911226l24.130065 98.105807c1.816774 7.399226 8.40671 12.58529 16.037161 12.58529h25.946839a16.516129 16.516129 0 0 1 0.016516 33.032258z" fill="#666666" p-id="677"></path><path d="M515.765677 158.97324767m-66.064516 0a66.064516 66.064516 0 1 0 132.129033 0 66.064516 66.064516 0 1 0-132.129033 0Z" fill="#FFFFFF" p-id="678"></path><path d="M515.765677 258.07002167c-54.651871 0-99.096774-44.444903-99.096774-99.096774s44.444903-99.096774 99.096774-99.096775 99.096774 44.444903 99.096775 99.096775-44.444903 99.096774-99.096775 99.096774z m0-132.129032c-18.21729 0-33.032258 14.814968-33.032258 33.032258s14.814968 33.032258 33.032258 33.032258 33.032258-14.814968 33.032258-33.032258-14.814968-33.032258-33.032258-33.032258z" fill="#666666" p-id="679"></path><path d="M165.16129 373.68292467m-66.064516 0a66.064516 66.064516 0 1 0 132.129032 0 66.064516 66.064516 0 1 0-132.129032 0Z" fill="#FFFFFF" p-id="680"></path><path d="M165.16129 472.77969867c-54.651871 0-99.096774-44.444903-99.096774-99.096774s44.444903-99.096774 99.096774-99.096774 99.096774 44.444903 99.096775 99.096774-44.444903 99.096774-99.096775 99.096774z m0-132.129032c-18.21729 0-33.032258 14.814968-33.032258 33.032258s14.814968 33.032258 33.032258 33.032258 33.032258-14.814968 33.032258-33.032258-14.814968-33.032258-33.032258-33.032258z" fill="#666666" p-id="681"></path><path d="M866.370065 373.68292467m-66.064517 0a66.064516 66.064516 0 1 0 132.129033 0 66.064516 66.064516 0 1 0-132.129033 0Z" fill="#FFFFFF" p-id="682"></path><path d="M866.370065 472.77969867c-54.651871 0-99.096774-44.444903-99.096775-99.096774s44.444903-99.096774 99.096775-99.096774 99.096774 44.444903 99.096774 99.096774-44.444903 99.096774-99.096774 99.096774z m0-132.129032c-18.21729 0-33.032258 14.814968-33.032259 33.032258s14.814968 33.032258 33.032259 33.032258 33.032258-14.814968 33.032258-33.032258-14.814968-33.032258-33.032258-33.032258z" fill="#666666" p-id="683"></path><path d="M484.467613 729.04395667h-33.032258a16.516129 16.516129 0 1 1 0-33.032258h33.032258a16.516129 16.516129 0 1 1 0 33.032258z" fill="#666666" p-id="684"></path></svg>