<?xml version="1.0" standalone="no"?><!DOCTYPE svg PUBLIC "-//W3C//DTD SVG 1.1//EN" "http://www.w3.org/Graphics/SVG/1.1/DTD/svg11.dtd"><svg t="1527250606981" class="icon" style="" viewBox="0 0 1024 1024" version="1.1" xmlns="http://www.w3.org/2000/svg" p-id="2831" xmlns:xlink="http://www.w3.org/1999/xlink" width="200" height="200"><defs><style type="text/css">@font-face { font-family: yourDictFontAwesome; src: url("chrome-extension://dmckmhkomggmpalekfadjibdcknieljf/lib/fontawesome-webfont.ttf") format("truetype"); font-weight: normal; font-style: normal; }
</style></defs><path d="M185.504 715.488q0-36.992 24.992-62.016t62.016-24.992q13.504 0 27.008 6.752t28.992 16.736l55.488-103.488q-24.512-43.008-24.512-92 0-54.496 42.496-89.76t97.504-35.264l30.016-55.008 19.488 0-31.008 56q14.496 2.016 28.256 6.752t28.256 11.744l40-74.496 20.512 0-46.016 84.992q17.504 13.504 27.008 29.248t9.504 37.248q0 36.992-22.496 61.504t-54.016 24.512q-18.496 0-34.016-12.512l-51.008 96.512q13.504 28.512 18.016 49.504t4.512 49.504q0 52-42.496 91.488t-99.008 39.488l-4 0-30.496 58.496-18.496 0 30.496-59.488q-17.504 0-32.736-3.008t-29.76-8l-38.016 70.496-18.016 0 42.016-79.008q-28.512-11.488-44.512-36.256t-16-55.744zM197.504 719.488q0 24.512 14.496 44.992t39.008 32.992l47.008-88q-4.992-0.992-7.744-9.76t-2.752-13.76l2.496-16.512q-4-8.992-14.016-13.76t-22.016-4.736q-26.496 0-41.504 20t-15.008 48.512zM266.016 803.488q10.016 6.016 27.264 9.248t34.24 3.264l97.504-182.496-32-67.488-52.992 99.488q4.992 11.488 4.992 23.488 0 13.504-8.256 22.496t-17.248 8.992l-8-0.992zM348 816q44 0 72.992-35.008 24.512-30.496 24.512-65.504 0-21.504-2.752-34.24t-7.744-29.248zM400.512 440q-0.512 26.016 12.992 53.504l80-149.504q-40.992 4.992-67.008 30.016t-26.016 66.016zM422.016 511.008l32.512 67.488 46.016-87.008q-6.016-6.016-6.016-17.504 0-38.016 34.016-38.016l40-72.512q-8-6.016-24.992-11.744t-31.488-7.744zM546.016 444q8 6.016 12.512 16.992t8.992 20.992q-0.992 2.016 2.496 3.008t8.512 2.016q12.512 0 23.744-16.736t11.264-43.264q0-15.488-8.256-28.736t-22.752-24.736z" p-id="2832"></path></svg>