<?xml version="1.0" standalone="no"?><!DOCTYPE svg PUBLIC "-//W3C//DTD SVG 1.1//EN" "http://www.w3.org/Graphics/SVG/1.1/DTD/svg11.dtd"><svg t="1527250599133" class="icon" style="" viewBox="0 0 1024 1024" version="1.1" xmlns="http://www.w3.org/2000/svg" p-id="2702" xmlns:xlink="http://www.w3.org/1999/xlink" width="200" height="200"><defs><style type="text/css">@font-face { font-family: yourDictFontAwesome; src: url("chrome-extension://dmckmhkomggmpalekfadjibdcknieljf/lib/fontawesome-webfont.ttf") format("truetype"); font-weight: normal; font-style: normal; }
</style></defs><path d="M213.721866 904.331872q0-45.87566 30.593367-76.440247 39.572794-39.572794 80.037774-39.572794 2.70534 0 3.597527 1.813153t1.813153 2.70534q0 2.70534-15.512535 6.302867t-30.363125 11.253064q-22.93783 12.14525-35.975267 25.64317-22.93783 24.722203-22.93783 57.099944 0 46.767847 41.385947 75.548061 35.08308 23.830017 74.655874 23.830017 101.191231 0 185.94896-79.145587t84.757729-179.415852q0-21.124677-3.597527-43.832265t-11.253064-42.940079q-35.08308 42.278134-75.548061 66.568634-49.012704 28.31973-102.975604 28.31973-53.502417 0-89.276223-30.363125t-35.745025-78.023159q0-80.958741 72.411017-133.568971 45.87566-33.269927 147.498595-66.568634-6.302867-22.93783-6.302867-49.473187 0-59.805284 29.240697-105.220461 34.190894-52.61023 91.290838-52.61023 32.37774 0 50.825857 18.448117t18.448117 51.718044q0 65.215964-87.693311 111.523328-27.427544 14.85059-81.850927 35.08308 6.302867 35.08308 42.278134 114.228668 24.722203 51.718044 33.269927 68.813491 28.31973-35.08308 61.157954-77.792917t53.962901-73.303204q44.983474-64.294997 90.830354-98.485891 38.680607-28.31973 71.058347-28.31973 34.190894 0 34.190894 31.02507 0 33.269927-34.190894 33.269927-13.037437 0-24.060259-16.634963t-18.217875-16.634963q-13.037437 0-43.832265 26.305115t-54.624845 58.682856q-39.572794 54.423384-66.568634 89.045981-5.41068 6.302867-65.215964 82.282631 22.93783 58.020911 22.93783 123.208094 0 102.975604-76.440247 182.581675-80.037774 82.743114-193.374255 82.743114-56.207757 0-99.378078-31.485554-46.767847-34.190894-47.228331-88.153794zM342.801124 648.015289q0 35.975267 19.800787 59.575042t55.776054 23.599775q50.825857 0 98.485891-27.888027 41.385947-23.830017 76.440247-66.108151-38.680607-94.888364-77.361214-190.668915-76.440247 29.6724-119.610568 73.763687-53.502417 53.962901-53.502417 127.726588zM517.727263 374.60326q0 13.929623 0.460483 27.197302t5.41068 29.010455q84.556268-31.485554 104.788758-44.062507 57.099944-35.975267 57.099944-92.183024 0-24.722203-15.282293-40.925464t-40.925464-16.20326q-49.012704 0-81.850927 45.87566-29.6724 41.385947-29.6724 91.290838z" p-id="2703"></path></svg>