<svg id="图层_1" data-name="图层 1" xmlns="http://www.w3.org/2000/svg" viewBox="0 0 26 26"><defs><style></style></defs><title></title><path class="cls-1" d="M8.73,6.66l8.55,0a5.29,5.29,0,0,0,2.19-3.26c.32-1.56-.65-2.06-3.08-2.06S14.46,3.51,14,3.51c-.29,0-.55-1.68-1.66-2.39-.79-.51-1.89.8-2.94.81-1.23,0-2.83-.13-2.83,1.54A4.52,4.52,0,0,0,8.73,6.66Zm-.35.24a.55.55,0,0,0-.61.47.55.55,0,0,0,.61.46h9.35a.55.55,0,0,0,.61-.46.55.55,0,0,0-.61-.47Zm9.86,1.74H8a11.49,11.49,0,0,0-6.17,10c0,5.15,5.3,6.32,11.34,6.32s11.08-1.23,11.08-6.38a11.37,11.37,0,0,0-6-10Zm-3,6.59a.67.67,0,1,1,0,1.33H13.71v.66h1.52a.67.67,0,1,1,0,1.33H13.71V20a.73.73,0,0,1-.77.66.72.72,0,0,1-.76-.66v-1.4H10.65a.67.67,0,1,1,0-1.33h1.53v-.66H10.65a.67.67,0,1,1,0-1.33h1.53v-.39L10,13a.61.61,0,0,1,0-.94.86.86,0,0,1,1.08,0L13,13.68l1.91-1.6a.86.86,0,0,1,1.08,0A.61.61,0,0,1,16,13l-2.26,1.9v.29Zm0,0"/></svg>
