<?xml version="1.0" standalone="no"?><!DOCTYPE svg PUBLIC "-//W3C//DTD SVG 1.1//EN" "http://www.w3.org/Graphics/SVG/1.1/DTD/svg11.dtd"><svg class="icon" width="200px" height="123.60px" viewBox="0 0 1657 1024" version="1.1" xmlns="http://www.w3.org/2000/svg"><path fill="#333333" d="M828.952381 0C371.078095 0 0 463.725714 0 512S371.078095 1024 828.952381 1024s828.952381-463.725714 828.952381-512S1286.826667 0 828.952381 0z m0 837.729524a328.655238 328.655238 0 0 1-331.580952-325.729524 331.580952 331.580952 0 0 1 663.161904 0 328.655238 328.655238 0 0 1-331.580952 325.729524z m0-465.188572a139.459048 139.459048 0 1 0 141.897143 139.459048A140.434286 140.434286 0 0 0 828.952381 372.540952z" /></svg>