<svg id="图层_1" data-name="图层 1" xmlns="http://www.w3.org/2000/svg" viewBox="0 0 26 26"><defs><style></style></defs><title></title><path class="cls-1" d="M22.63,5.09H18.41V2.71a1.59,1.59,0,0,0-1.59-1.58H2.58A1.58,1.58,0,0,0,1,2.71V9a1.59,1.59,0,0,0,1.58,1.59H16.82A1.59,1.59,0,0,0,18.41,9V6.67h4.22a.8.8,0,0,1,.79.79v4.75a.8.8,0,0,1-.79.79H12.34A2.37,2.37,0,0,0,10,15.37H6.8v7.92a1.58,1.58,0,0,0,1.58,1.58h4.75a1.58,1.58,0,0,0,1.58-1.58V15.37H11.55a.79.79,0,0,1,.79-.79H22.63A2.37,2.37,0,0,0,25,12.21V7.46A2.37,2.37,0,0,0,22.63,5.09ZM3.37,3.51a.8.8,0,0,1,.79-.8H15.24a.8.8,0,0,1,0,1.59H4.16A.8.8,0,0,1,3.37,3.51Z"/></svg>
