<svg id="图层_1" data-name="图层 1" xmlns="http://www.w3.org/2000/svg" viewBox="0 0 26 26"><defs><style></style></defs><title></title><rect class="cls-1" x="3.42" y="1.82" width="19.16" height="1.6" rx="0.8" ry="0.8"/><path class="cls-1" d="M22,14.36a3,3,0,0,1-3-2.56,0,0,0,0,0-.06,0,3,3,0,0,1-5.94,0,0,0,0,0,0-.06,0A3,3,0,0,1,7,11.8a0,0,0,1,0-.06,0,3,3,0,0,1-3,2.56l-.18,0v8.24a1.6,1.6,0,0,0,1.6,1.6h16a1.6,1.6,0,0,0,1.6-1.6v-8.4A2.93,2.93,0,0,1,22,14.36Z"/><path class="cls-1" d="M3.57,4.34,1,9.48a3,3,0,0,0,6,0,3,3,0,0,0,6,0,3,3,0,0,0,6,0,3,3,0,0,0,6,0L22.54,4.34Z"/></svg>
