<svg id="图层_1" data-name="图层 1" xmlns="http://www.w3.org/2000/svg" viewBox="0 0 26 26"><defs><style></style></defs><title>画板 14</title><path class="cls-1" d="M13.68,14.73q-.9,0-.93,1.32c0,.84.33,1.27.93,1.28s.93-.44,1-1.28-.33-1.3-1-1.32Z"/><path class="cls-1" d="M19.21,1c-2.56,6.23-5.84,5.09-6.41,5.09.51-1,2.69-2.61,2.3-2.38-.09,0-4.29-.59-8.89,3.61a11,11,0,0,0-3.54,8.22C2.67,20.77,7.21,25,12.8,25s9.51-3.7,10.28-9.06C24.44,6.55,19.73,1.31,19.21,1ZM10.46,17.69a.7.7,0,0,1-.75.75.7.7,0,0,1-.77-.75v-1.1H7.47v1.1a.7.7,0,0,1-.77.75A.7.7,0,0,1,6,17.69V14.4c0-.53.27-.81.75-.83a.74.74,0,0,1,.77.83v.9H8.94v-.9c0-.53.27-.81.77-.83s.73.3.75.83v3.29Zm3.22.78a2.26,2.26,0,0,1-2.45-2.42,2.36,2.36,0,0,1,2.45-2.5,2.35,2.35,0,0,1,2.47,2.5,2.26,2.26,0,0,1-2.47,2.42Zm6.77-3.58h-.9v2.8a.71.71,0,0,1-.78.75.69.69,0,0,1-.74-.75v-2.8H17.1a.55.55,0,0,1-.62-.62c0-.4.23-.59.67-.59H20.4c.46,0,.69.19.69.59a.56.56,0,0,1-.64.62Zm0,0"/></svg>
