<svg id="图层_1" data-name="图层 1" xmlns="http://www.w3.org/2000/svg" viewBox="0 0 100 100"><defs><style>.cls-1{fill:#ca303a;}</style></defs><title>画板 2</title><path class="cls-1" d="M34.26,65.83V50.49a13.66,13.66,0,0,1-13-13.64v-17A15.33,15.33,0,0,0,5.9,4.5h0V36.85a29,29,0,0,0,28.36,29Z"/><path class="cls-1" d="M36.56,50.51v17a13.63,13.63,0,0,1-13,13.63V96.5a29,29,0,0,0,28.37-29V35.17h0A15.34,15.34,0,0,0,36.56,50.51Z"/><polygon class="cls-1" points="82.6 35.17 82.6 22.13 67.27 22.13 67.27 35.17 54.24 35.17 54.24 50.5 67.27 50.5 67.27 63.53 82.6 63.53 82.6 50.5 95.64 50.5 95.64 35.17 82.6 35.17"/></svg>