<svg id="图层_1" data-name="图层 1" xmlns="http://www.w3.org/2000/svg" viewBox="0 0 26 26"><defs><style></style></defs><title></title><path class="cls-1" d="M8.39,2.6h6.4a.8.8,0,1,0,0-1.6H8.39a.8.8,0,0,0,0,1.6Z"/><path class="cls-1" d="M21.73,17V2.6A1.6,1.6,0,0,0,20.13,1h-3.2v.16A2.24,2.24,0,0,1,14.69,3.4H8A2.24,2.24,0,0,1,5.73,1.16V1H2.53A1.6,1.6,0,0,0,.93,2.6V21.8a1.6,1.6,0,0,0,1.6,1.6H17.35a4.72,4.72,0,0,1-.28-1.6A4.78,4.78,0,0,1,21.73,17ZM10.53,18.6H5.73a.8.8,0,0,1,0-1.6h4.8a.8.8,0,0,1,0,1.6Zm6.4-4.4H5.73a.8.8,0,1,1,0-1.6h11.2a.8.8,0,0,1,0,1.6Zm0-4.4H5.73a.8.8,0,0,1,0-1.6h11.2a.8.8,0,0,1,0,1.6Z"/><path class="cls-1" d="M21.87,18.6a3.2,3.2,0,1,0,3.2,3.2A3.2,3.2,0,0,0,21.87,18.6Zm-.25,4.7c-.3.3-.46.25-.59.12l-1.57-1.58a.36.36,0,0,1,0-.5.35.35,0,0,1,.5,0l1.28,1.28,2.48-2.43a.37.37,0,0,1,.52,0,.35.35,0,0,1,0,.51Z"/></svg>
