<?xml version="1.0" encoding="utf-8"?>
<!-- Generator: Adobe Illustrator 19.0.0, SVG Export Plug-In . SVG Version: 6.00 Build 0)  -->
<svg version="1.1" id="图层_1" xmlns="http://www.w3.org/2000/svg" xmlns:xlink="http://www.w3.org/1999/xlink" x="0px" y="0px"
	 viewBox="102 20.89 800 800" enable-background="new 102 20.89 800 800" xml:space="preserve">
<line id="XMLID_1_" fill="none" x1="1144.058" y1="614.471" x2="1138.059" y2="617.471"/>
<g id="XMLID_24_">
	<path id="XMLID_25_" d="M502,20.89c220.914,0,400,179.086,400,400c0,220.912-179.086,400-400,400s-400-179.088-400-400
		C102,199.976,281.086,20.89,502,20.89z"/>
	<g id="XMLID_41_">
		<g id="XMLID_138_">
			<path id="XMLID_139_" fill="#FFFFFF" d="M320.882,296.352h207.38c15.398,0,27.914-12.198,27.914-27.25V248.14
				c0-15.124-12.502-27.25-27.914-27.25h-207.38c-15.402,0-27.928,12.2-27.928,27.25v20.976
				C292.954,284.24,305.468,296.352,320.882,296.352z M492.716,394.464h-0.014c9.426-10.736,20.364-20.162,32.52-27.974v-20.238
				c0-15.126-12.502-27.25-27.916-27.25H289.914c-15.386,0-27.914,12.202-27.914,27.25v20.974c0,15.126,12.502,27.252,27.914,27.252
				L492.716,394.464z M292.954,444.366v20.974c0,15.126,12.502,27.25,27.916,27.25h134.648c0-27.498,7.538-53.264,20.722-75.462
				H320.882C305.48,417.114,292.954,429.316,292.954,444.366z M305.39,515.228c-15.398,0-27.914,12.2-27.914,27.248v20.976
				c0,15.124,12.504,27.25,27.914,27.25h187.312c-18.412-20.974-31.028-46.9-35.44-75.474H305.39z M610.378,364.29
				c-72.68,0-131.612,57.45-131.612,128.314c0,70.848,58.932,128.286,131.612,128.286C683.082,620.89,742,563.452,742,492.604
				C741.988,421.74,683.068,364.29,610.378,364.29z M662.872,513.628c5.718,0,10.348,4.248,10.348,9.5c0,5.25-4.63,9.5-10.348,9.5
				h-37.158v20.626c0,7.012-6.196,12.7-13.824,12.7c-7.628,0-13.824-5.688-13.824-12.7v-20.626h-37.158
				c-5.718,0-10.348-4.25-10.348-9.5c0-5.252,4.63-9.5,10.348-9.5h37.158v-13.724h-37.158c-5.718,0-10.348-4.25-10.348-9.5
				c0-5.252,4.63-9.502,10.348-9.502h37.158v-10.674l-37.39-34.938c-4.668-4.364-4.604-11.362,0.154-15.636
				c4.758-4.276,12.374-4.226,17.042,0.138l34.03,31.786l34.032-31.786c4.666-4.364,12.284-4.414,17.042-0.138
				c4.742,4.274,4.808,11.286,0.152,15.636l-37.39,34.938v10.674h37.16c5.718,0,10.348,4.25,10.348,9.502
				c0,5.25-4.63,9.5-10.348,9.5h-37.16v13.724H662.872z"/>
		</g>
	</g>
</g>
</svg>
