<?xml version="1.0" encoding="utf-8"?>
<!-- Generator: Adobe Illustrator 19.0.0, SVG Export Plug-In . SVG Version: 6.00 Build 0)  -->
<svg version="1.1" id="图层_1" xmlns="http://www.w3.org/2000/svg" xmlns:xlink="http://www.w3.org/1999/xlink" x="0px" y="0px"
	 viewBox="0 0 800 800" enable-background="new 0 0 800 800" xml:space="preserve">
<path id="XMLID_4_" fill-rule="evenodd" clip-rule="evenodd" d="M400.001-0.001C620.916-0.001,800,179.085,800,400
	c0,220.913-179.084,400.001-399.999,400.001S0,620.913,0,400C0,179.085,179.086-0.001,400.001-0.001z"/>
<path id="XMLID_3_" fill="#FFFFFF" d="M640.004,312.726c0-10.68-8.954-19.338-20.002-19.338H179.996
	c-11.048,0-19.998,8.658-19.998,19.338v288.131c0,10.68,8.95,19.338,19.998,19.338h440.005c11.048,0,20.002-8.658,20.002-19.338
	v-73.482h-126v-0.012c-0.338,0.004-0.668,0.012-1.002,0.012c-40.316,0-73.002-31.602-73.002-70.582
	c0-38.982,32.686-70.586,73.002-70.586c0.334,0,0.668,0.008,1.002,0.014v-0.014h126V312.726z M567.169,191.363
	c-2.496-8.456-11.64-13.362-20.42-10.956l-346.709,94.984h391.957L567.169,191.363z M469.999,456.792
	c0,22.96,19.252,41.576,43.002,41.576c23.748,0,43-18.616,43-41.576c0-22.964-19.252-41.576-43-41.576
	C489.251,415.216,469.999,433.828,469.999,456.792z"/>
</svg>
