<?xml version="1.0" encoding="utf-8"?>
<!-- Generator: Adobe Illustrator 19.0.0, SVG Export Plug-In . SVG Version: 6.00 Build 0)  -->
<svg version="1.1" id="图层_1" xmlns="http://www.w3.org/2000/svg" xmlns:xlink="http://www.w3.org/1999/xlink" x="0px" y="0px"
	 viewBox="0 0 800 800" enable-background="new 0 0 800 800" xml:space="preserve">
<g id="XMLID_1_">
	<path id="XMLID_3_" d="M400,0c220.914,0,400,179.086,400,400c0,220.912-179.086,400-400,400S0,620.912,0,400
		C0,179.086,179.086,0,400,0z"/>
	<g id="XMLID_14_">
		<g id="XMLID_80_">
			<path id="XMLID_81_" fill="#FFFFFF" d="M531.612,351.194c41.024,0,74.284-33.806,74.284-75.5
				c0-41.698-33.26-75.502-74.284-75.502s-74.28,33.804-74.28,75.502C457.332,317.388,490.586,351.194,531.612,351.194z
				 M494.578,239.628l47.688,43.216l26.382-23.992v28.92l-26.382,23.99l-47.688-43.22V239.628z M244.098,540.512
				c-7.836,0-14.622,2.91-20.352,8.734c-5.728,5.826-8.592,12.714-8.592,20.686c0,8.272,2.864,15.32,8.592,21.138
				c5.73,5.826,12.514,8.74,20.352,8.74c8.138,0,15-2.914,20.578-8.74c5.578-5.82,8.364-12.866,8.364-21.138
				c0-7.972-2.786-14.864-8.364-20.686C259.098,543.422,252.242,540.512,244.098,540.512z M635.74,290.454
				c-2.456-6.378-5.85-12.254-10.158-17.628c0.058,1.446,0.096,2.896,0.096,4.356c0,13.386-2.504,25.898-7.518,37.536
				c-5.006,11.638-11.804,21.82-20.392,30.55c-8.588,8.726-18.606,15.564-30.056,20.51c-11.448,4.944-23.756,7.418-36.924,7.418
				c-12.886,0-25.046-2.474-36.5-7.418c-11.452-4.944-21.468-11.784-30.054-20.51c-8.586-8.73-15.384-18.912-20.394-30.55
				c-5.012-11.638-7.516-24.152-7.516-37.536c0-8.77,1.132-17.22,3.38-25.338h-81.186l-0.906,299.242c0,5.208,1.736,9.498,5.2,12.87
				c3.47,3.372,7.612,5.056,12.438,5.056h123.46c0-18.08,4.524-32.328,13.57-42.748c9.042-10.422,23.214-15.634,42.51-15.634
				c18.39,0,32.49,4.83,42.284,14.484c9.796,9.65,14.698,24.286,14.698,43.898h10.402c5.126,0,9.346-1.536,12.664-4.598
				s4.974-7.508,4.974-13.328V312.058C639.812,304.706,638.458,297.5,635.74,290.454z M317.816,307.924
				c-9.948-0.918-20.35-0.536-31.206,1.15c-10.852,1.684-21.558,4.516-32.108,8.5c-10.532,3.972-20.554,9.222-29.848,15.634
				c-9.35,6.434-17.188,14.094-23.516,22.982c-11.46,15.928-20.048,32.94-25.782,51.02c-5.726,18.078-9.724,35.778-11.982,53.094
				h0.002c-2.262,17.314-3.32,33.478-3.166,48.488c0.148,15.014,0.226,27.276,0.226,36.776c0,1.836,0.15,4.06,0.452,6.664
				c0.308,2.644,0.838,5.26,1.586,7.812c0.75,2.608,1.656,4.83,2.71,6.67c1.054,1.838,2.488,2.758,4.296,2.758h18.546
				c0-10.418,1.58-19.306,4.744-26.662c3.166-7.356,7.386-13.328,12.666-17.926c5.272-4.598,11.452-7.966,18.538-10.112
				c7.088-2.146,14.548-3.22,22.388-3.22c7.838,0,15.074,1.532,21.706,4.596c6.636,3.066,12.434,7.206,17.41,12.416
				c4.978,5.212,8.892,11.258,11.76,18.154c2.864,6.892,4.296,14.174,4.296,21.834h8.142c5.43,0,10.098-1.994,14.02-5.974
				c3.918-3.984,5.876-8.732,5.876-14.25V326.77c0-3.372-1.128-7.28-3.39-11.72C323.92,310.606,321.13,308.228,317.816,307.924z
				 M301.534,404.908c0,12.264-0.154,25.894-0.454,40.914v0.458c0,1.534-1.054,3.37-3.166,5.516c-2.11,2.144-4.22,3.22-6.332,3.22
				h-83.208c-3.622,0-6.786-0.08-9.5-0.228c-2.714-0.154-4.07-2.07-4.07-5.75c0-0.614,0.074-1.074,0.226-1.38
				c0.146-0.306,0.228-0.768,0.228-1.378c3.31-15.016,6.93-29.496,10.852-43.436c3.918-13.944,10.55-25.818,19.896-35.626
				c6.032-5.824,12.512-10.036,19.446-12.642c6.934-2.604,13.49-4.29,19.67-5.056c6.186-0.766,11.384-0.996,15.604-0.688
				c4.226,0.308,6.486,0.464,6.788,0.464c3.92,0,7.236,1.45,9.946,4.364c2.712,2.908,4.074,6.052,4.074,9.422V404.908z
				 M555.242,540.056c-8.142,0-14.998,2.91-20.578,8.73c-5.576,5.82-8.366,12.874-8.366,21.146c0,7.964,2.788,14.858,8.366,20.684
				c5.58,5.824,12.436,8.734,20.578,8.734c8.142,0,14.998-2.91,20.578-8.736c5.578-5.824,8.366-12.72,8.366-20.682
				c0-8.28-2.788-15.324-8.366-21.146C570.244,542.966,563.384,540.056,555.242,540.056z"/>
		</g>
	</g>
</g>
<line id="XMLID_15_" fill="none" x1="1042.058" y1="593.581" x2="1036.059" y2="596.581"/>
</svg>
