<?xml version="1.0" encoding="utf-8"?>
<!-- Generator: Adobe Illustrator 19.0.0, SVG Export Plug-In . SVG Version: 6.00 Build 0)  -->
<svg version="1.1" id="图层_1" xmlns="http://www.w3.org/2000/svg" xmlns:xlink="http://www.w3.org/1999/xlink" x="0px" y="0px"
	 viewBox="0 0 1024 1024" enable-background="new 0 0 1024 1024" xml:space="preserve">
<path fill="#231815" d="M655.049,454.491l-48.327-120.817c-3.385-9.184-12.566-14.979-22.233-14.979H246.204
	c-9.669,0-18.849,5.795-22.234,14.979l-48.327,120.817c-1.448,2.898-1.932,6.283-1.932,9.181c0,53.16,43.493,96.656,96.653,96.656
	c28.998,0,54.613-12.565,72.49-32.863c17.883,20.297,43.496,32.863,72.492,32.863c28.995,0,54.608-12.565,72.491-32.863
	c17.879,20.297,43.493,32.863,72.491,32.863c53.16,0,96.652-43.496,96.652-96.656C656.979,460.774,656.496,457.389,655.049,454.491z
	 M584.488,608.653c-13.532,0-24.161,10.632-24.161,24.163v144.981c0,13.532-10.633,24.166-24.164,24.166H294.529
	c-13.532,0-24.165-10.633-24.165-24.166V632.815c0-13.531-10.63-24.163-24.16-24.163c-13.533,0-24.166,10.632-24.166,24.163v144.981
	c0,40.112,32.379,72.493,72.491,72.493h241.635c40.112,0,72.491-32.38,72.491-72.493V632.815
	C608.654,619.284,598.02,608.653,584.488,608.653z M848.356,309.51l-48.329-120.818c-3.381-9.181-12.567-14.98-22.23-14.98H439.512
	c-9.669,0-18.849,5.799-22.234,14.98l-19.333,48.327c-4.829,12.565,0.972,26.58,13.533,31.414
	c12.082,4.833,26.58-0.966,31.415-13.532l13.048-32.863h305.427l40.595,101.003c-2.418,24.647-23.199,43.978-48.331,43.978
	c-13.53,0-24.16,10.631-24.16,24.161c0,13.532,10.63,24.166,24.16,24.166c53.162,0,96.658-43.493,96.658-96.652
	C850.289,315.791,849.806,312.41,848.356,309.51z M777.797,463.672c-13.532,0-24.166,10.634-24.166,24.166v144.978
	c0,13.532-10.629,24.166-24.16,24.166h-48.327c-13.531,0-24.165,10.633-24.165,24.164s10.634,24.161,24.165,24.161h48.327
	c40.112,0,72.491-32.379,72.491-72.491V487.837C801.962,474.306,791.328,463.672,777.797,463.672z"/>
</svg>
