<svg id="图层_1" data-name="图层 1" xmlns="http://www.w3.org/2000/svg" viewBox="0 0 26 26"><defs><style></style></defs><title></title><path class="cls-1" d="M23.4,1H2.6A1.6,1.6,0,0,0,1,2.6V23.4A1.6,1.6,0,0,0,2.6,25H23.4A1.6,1.6,0,0,0,25,23.4V2.6A1.6,1.6,0,0,0,23.4,1Zm-3,5.22-.05,0V6.3a7.38,7.38,0,0,1-14.61,0V6.24l0,0a1.13,1.13,0,0,1-.58-1,1.15,1.15,0,1,1,2.29,0,1.12,1.12,0,0,1-.42.87l-.06,0,0,.06a6.2,6.2,0,0,0,12.24,0V6.16l-.05,0a1.11,1.11,0,0,1-.42-.87,1.15,1.15,0,1,1,2.29,0A1.16,1.16,0,0,1,20.36,6.22Z"/></svg>
