<?xml version="1.0" standalone="no"?><!DOCTYPE svg PUBLIC "-//W3C//DTD SVG 1.1//EN" "http://www.w3.org/Graphics/SVG/1.1/DTD/svg11.dtd"><svg t="1526450614648" class="icon" style="" viewBox="0 0 1024 1024" version="1.1" xmlns="http://www.w3.org/2000/svg" p-id="2672" xmlns:xlink="http://www.w3.org/1999/xlink" width="200" height="200"><defs><style type="text/css"></style></defs><path d="M803.49866667 125.49688889H221.86666667c-53.13422222 0-96.93866667 47.67288889-96.93866667 100.92088889v578.21866667c0 53.248 43.12177778 96.36977778 96.256 96.36977777h577.87733333c53.13422222 0 101.376-43.69066667 101.376-96.93866667V222.43555555c0-53.248-43.69066667-96.93866667-96.93866666-96.93866666zM706.56 658.65955555H318.80533333c-13.42577778 0-24.23466667-10.80888889-24.23466666-24.23466666s10.80888889-24.23466667 24.23466666-24.23466667H706.56c13.42577778 0 24.23466667 10.80888889 24.23466667 24.23466667s-10.80888889 24.23466667-24.23466667 24.23466666z m0-145.408H318.80533333c-13.42577778 0-24.23466667-10.80888889-24.23466666-24.23466666s10.80888889-24.23466667 24.23466666-24.23466667H706.56c13.42577778 0 24.23466667 10.80888889 24.23466667 24.23466667s-10.80888889 24.23466667-24.23466667 24.23466666z m0-145.408H318.80533333c-13.42577778 0-24.23466667-10.80888889-24.23466666-24.23466666s10.80888889-24.23466667 24.23466666-24.23466667H706.56c13.42577778 0 24.23466667 10.80888889 24.23466667 24.23466667s-10.80888889 24.23466667-24.23466667 24.23466666z" fill="#333333" p-id="2673"></path></svg>