<?xml version="1.0" standalone="no"?><!DOCTYPE svg PUBLIC "-//W3C//DTD SVG 1.1//EN" "http://www.w3.org/Graphics/SVG/1.1/DTD/svg11.dtd"><svg t="1526451741345" class="icon" style="" viewBox="0 0 1024 1024" version="1.1" xmlns="http://www.w3.org/2000/svg" p-id="1016" xmlns:xlink="http://www.w3.org/1999/xlink" width="200" height="200"><defs><style type="text/css"></style></defs><path d="M511.999488 66.847477c-245.825778 0-445.138196 199.312418-445.138196 445.138196 0 245.853407 199.312418 445.165826 445.138196 445.165826 245.826801 0 445.138196-199.312418 445.138196-445.165826C957.137685 266.160919 757.825266 66.847477 511.999488 66.847477zM511.891018 762.730485c-95.362928 0-179.805132-53.604872-222.624357-133.645836l0 75.096349c0 7.661494-6.248308 13.910824-13.910824 13.910824s-13.910824-6.248308-13.910824-13.910824L261.445012 540.025287c0-7.336082 5.705955-13.421684 13.041014-13.910824 8.368598-0.325411 13.748119 4.89038 14.672164 12.172227 13.964036 112.099101 109.708658 196.594517 222.731804 196.594517s208.820979-84.495416 222.786039-196.594517c0.924045-7.553023 7.063883-12.878309 15.540951-12.063757 7.608282 0.924045 13.041014 7.879458 12.063757 15.541975C746.577085 667.719574 638.933459 762.730485 511.891018 762.730485zM406.746306 524.647041c-7.661494 0-13.910824-6.249331-13.910824-13.910824 0-7.661494 6.248308-13.910824 13.910824-13.910824l89.820702 0-87.321788-84.767616c-5.542226-5.379521-5.650697-14.182001-0.325411-19.671015 5.379521-5.597485 14.182001-5.704932 19.671015-0.325411l85.093027 82.594113 78.844719-78.95319c5.379521-5.379521 14.182001-5.487991 19.671015 0 5.434779 5.433756 5.434779 14.236236 0 19.671015l-81.289398 81.453127 92.320639 0c7.661494 0 13.910824 6.248308 13.910824 13.910824 0 7.66047-6.248308 13.910824-13.910824 13.910824L528.89939 524.648065l0 33.037441 94.331435 0c7.661494 0 13.910824 6.248308 13.910824 13.910824 0 7.66047-6.248308 13.910824-13.910824 13.910824L528.89939 585.507154l0 78.247108c0 7.66047-6.248308 13.910824-13.910824 13.910824s-13.910824-6.249331-13.910824-13.910824l0-78.247108-94.331435 0c-7.661494 0-13.910824-6.249331-13.910824-13.910824 0-7.661494 6.248308-13.910824 13.910824-13.910824l94.331435 0 0-33.037441L406.746306 524.648065zM762.389212 484.002342c0 7.336082-5.704932 13.421684-13.041014 13.910824-9.019421-0.325411-13.747095-4.944616-14.671141-12.172227-13.964036-112.099101-109.762893-196.649775-222.786039-196.649775S303.124274 373.641839 289.159214 485.74094c-0.86981 7.010671-6.846942 12.172227-13.802354 12.172227-0.542352 0-1.139963-0.054235-1.738597-0.10847-7.607258-0.923022-13.041014-7.878434-12.062733-15.540951 15.703657-125.95569 123.347283-220.993207 250.336512-220.993207 95.417163 0 179.859367 53.577243 222.676545 133.617184l0-75.04109c0-7.661494 6.249331-13.910824 13.910824-13.910824 7.661494 0 13.910824 6.248308 13.910824 13.910824L762.390235 484.002342z"  p-id="1017"></path></svg>