<svg id="图层_1" data-name="图层 1" xmlns="http://www.w3.org/2000/svg" viewBox="0 0 26 26"><defs><style></style></defs><title></title><path class="cls-1" d="M21.8,1H4.2A1.6,1.6,0,0,0,2.6,2.6V23.4A1.6,1.6,0,0,0,4.2,25H21.8a1.6,1.6,0,0,0,1.6-1.6V2.6A1.6,1.6,0,0,0,21.8,1ZM8.73,20.2H7.13a.8.8,0,1,1,0-1.6h1.6a.8.8,0,0,1,0,1.6Zm0-6.4H7.13a.8.8,0,1,1,0-1.6h1.6a.8.8,0,1,1,0,1.6Zm2.15-9.08L8.05,7.55a.81.81,0,0,1-1.13,0L5.79,6.41A.8.8,0,0,1,6.92,5.28l.56.57L9.75,3.59a.79.79,0,0,1,1.13,0A.8.8,0,0,1,10.88,4.72ZM19.13,20.2h-6.4a.8.8,0,1,1,0-1.6h6.4a.8.8,0,0,1,0,1.6Zm0-6.4h-6.4a.8.8,0,0,1,0-1.6h6.4a.8.8,0,1,1,0,1.6Zm0-6.4h-6.4a.8.8,0,0,1,0-1.6h6.4a.8.8,0,1,1,0,1.6Z"/></svg>
