<?xml version="1.0" encoding="UTF-8" standalone="no"?>
<svg width="24px" height="24px" viewBox="0 0 24 24" version="1.1" xmlns="http://www.w3.org/2000/svg" xmlns:xlink="http://www.w3.org/1999/xlink">
    <!-- Generator: Sketch 49.3 (51167) - http://www.bohemiancoding.com/sketch -->
    <title>4</title>
    <desc>Created with Sketch.</desc>
    <defs></defs>
    <g id="Page-7" stroke="none" stroke-width="1" fill="none" fill-rule="evenodd">
        <g id="Group-59" fill="#515151">
            <path d="M22.499,11.9251655 L22.499,22.4891655 C22.499,23.3231655 21.827,24.0001655 20.998,24.0001655 L12.751,24.0001655 L12.751,11.9251655 L22.499,11.9251655 Z M11.25,23.9971655 L3,24.0001655 C2.172,24.0001655 1.501,23.3201655 1.501,22.4871655 L1.501,11.9251655 L11.25,11.9251655 L11.25,23.9971655 Z M5.748,2.42216548 C3.661,3.66016548 8.607,6.24016548 10.228,5.76316548 C10.231,5.76316548 8.334,0.887165479 5.748,2.42216548 Z M1.501,10.4151655 C0.672,10.4151655 0,9.73816548 0,8.90516548 L0,7.39416548 C0,6.56016548 0.672,5.88416548 1.501,5.88416548 L5.586,5.88416548 C3.058,4.36216548 1.384,2.01516548 3.75,0.603165479 C7.709,-1.75483452 10.108,3.39116548 11.004,5.88916548 L11.252,5.88916548 L11.252,10.4181655 L1.501,10.4181655 L1.501,10.4151655 Z M18.211,2.47016548 C15.504,0.926165479 13.56,5.83316548 13.56,5.83316548 C15.256,6.31316548 20.398,3.71716548 18.211,2.47016548 Z M22.499,10.4151655 L12.751,10.4151655 L12.751,5.88916548 L11.899,5.88916548 C12.887,3.30716548 15.421,-1.74083452 19.5,0.606165479 C22.505,2.33516548 20.778,4.47416548 18.057,5.88716548 L22.499,5.88716548 C23.328,5.88716548 24,6.56316548 24,7.39716548 L24,8.90716548 C23.997,9.74116548 23.328,10.4151655 22.499,10.4151655 Z" id="Fill-1"></path>
        </g>
    </g>
</svg>