<?xml version="1.0" encoding="UTF-8" standalone="no"?>
<svg width="20px" height="24px" viewBox="0 0 20 24" version="1.1" xmlns="http://www.w3.org/2000/svg" xmlns:xlink="http://www.w3.org/1999/xlink">
    <!-- Generator: Sketch 49.3 (51167) - http://www.bohemiancoding.com/sketch -->
    <title>Artboard</title>
    <desc>Created with Sketch.</desc>
    <defs></defs>
    <g id="Page-7" stroke="none" stroke-width="1" fill="none" fill-rule="evenodd">
        <g id="Group-56" fill="#999999">
            <path d="M18.365,15.2615809 C18.392,18.7025809 14.925,22.3135809 10.572,22.4045809 C10.495,22.4095809 10.423,22.4095809 10.346,22.4095809 C6.048,22.4255809 2.113,19.0635809 1.711,14.9695809 C1.678,14.6465809 1.662,14.3335809 1.662,14.0365809 C1.662,12.4935809 2.047,11.2905809 2.493,10.4045809 C3.307,13.6335809 6.681,14.3655809 6.73,14.3705809 C6.73,14.3705809 6.796,14.3865809 6.901,14.3925809 C7.325,14.4025809 7.683,14.0895809 7.732,13.6865809 C7.771,13.3575809 7.325,12.8855809 7.325,12.8855809 C7.138,12.6635809 6.488,11.6085809 6.494,8.49558092 C6.494,8.21958092 6.499,7.92858092 6.51,7.62058092 C6.571,4.64558092 8.712,2.99158092 10.214,2.19058092 C10.011,3.19858092 9.807,4.62458092 9.774,6.37958092 L9.774,6.53358092 C9.774,10.4465809 12.795,11.7725809 12.905,11.7995809 C13.208,11.9215809 13.549,11.8625809 13.791,11.6505809 C14.028,11.4385809 14.116,11.1095809 14.012,10.8125809 C14.012,10.8125809 13.808,10.2345809 13.808,9.38158092 C13.808,8.95158092 13.868,8.47458092 14.017,7.98658092 C14.375,6.84658092 15.206,6.32658092 15.954,6.09358092 C15.795,6.59758092 15.668,7.21258092 15.668,7.93858092 C15.668,8.51158092 15.745,9.14258092 15.943,9.81558092 C17.028,12.8175809 18.321,11.2635809 18.371,15.2135809 L18.371,15.2615809 L18.365,15.2615809 Z M17.528,9.38658092 C17.374,8.85058092 17.319,8.37358092 17.314,7.93858092 C17.314,6.42758092 17.914,5.67958092 17.991,5.57958092 C18.167,5.34058092 18.222,5.02758092 18.084,4.76758092 C17.842,4.31758092 17.308,4.30158092 17.209,4.30158092 C16.532,4.29058092 13.445,4.47058092 12.432,7.51958092 C12.245,8.09758092 12.173,8.64958092 12.157,9.14758092 C11.755,8.56458092 11.414,7.72658092 11.414,6.53358092 L11.414,6.41158092 C11.48,3.05558092 12.206,1.06158092 12.19,1.05058092 C12.289,0.769580917 12.217,0.456580917 12.003,0.244580917 C11.788,0.0325809165 11.469,-0.0524190835 11.172,0.0325809165 C11.122,0.0535809165 5.118,1.70858092 4.848,7.56758092 C4.837,7.89158092 4.832,8.20358092 4.832,8.49558092 C4.898,9.92758092 5.002,10.9985809 5.151,11.8045809 C4.501,11.2265809 3.94,10.3405809 3.957,9.00958092 C3.957,8.73458092 4.023,8.11358092 4.023,8.11358092 C4.061,7.88558092 4.006,7.64158092 3.83,7.45658092 C3.522,7.13258092 2.999,7.10658092 2.663,7.40358092 L2.658,7.40858092 C2.575,7.48258092 0.005,9.75258092 0,14.0425809 C0,14.3925809 0.016,14.7525809 0.055,15.1235809 C0.566,20.0975809 5.162,23.9895809 10.33,24.0005809 C10.423,24.0005809 10.511,24.0005809 10.6,23.9945809 C15.855,23.8305809 19.972,19.6785809 20,15.2615809 L20,15.1925809 C19.977,10.6435809 17.776,10.9715809 17.528,9.38658092 Z" id="Fill-1"></path>
        </g>
        <g id="Artboard"></g>
    </g>
</svg>