<?xml version="1.0" encoding="UTF-8" standalone="no"?>
<svg width="24px" height="22px" viewBox="0 0 24 22" version="1.1" xmlns="http://www.w3.org/2000/svg" xmlns:xlink="http://www.w3.org/1999/xlink">
    <!-- Generator: Sketch 49.3 (51167) - http://www.bohemiancoding.com/sketch -->
    <title>2</title>
    <desc>Created with Sketch.</desc>
    <defs></defs>
    <g id="Page-7" stroke="none" stroke-width="1" fill="none" fill-rule="evenodd">
        <g id="Group-57" fill="#999999">
            <path d="M14.222,16.923 L24,16.923 L24,15.231 L14.222,15.231 L14.222,16.923 Z M16.889,11.846 L24,11.846 L24,10.154 L16.889,10.154 L16.889,11.846 Z M16.889,6.769 L24,6.769 L24,5.077 L16.889,5.077 L16.889,6.769 Z M7.556,12.692 C4.37,12.692 1.778,10.225 1.778,7.192 C1.778,4.16 4.37,1.692 7.556,1.692 C10.741,1.692 13.333,4.16 13.333,7.192 C13.333,10.225 10.741,12.692 7.556,12.692 Z M10.667,19.149 L8.407,17.976 L7.556,17.534 L6.704,17.976 L4.444,19.149 L4.444,13.742 C5.394,14.151 6.445,14.385 7.556,14.385 C8.666,14.385 9.717,14.151 10.667,13.742 L10.667,19.149 Z M7.556,0 C3.382,0 0,3.22 0,7.192 C0,9.389 1.036,11.352 2.667,12.671 L2.667,22 L7.556,19.461 L12.445,22 L12.445,12.671 C14.075,11.352 15.111,9.389 15.111,7.192 C15.111,3.22 11.728,0 7.556,0 Z M8.499,5.788 L7.556,3.026 L6.612,5.788 L3.555,5.788 L6.028,7.496 L5.084,10.259 L7.556,8.552 L10.028,10.259 L9.084,7.496 L11.556,5.788 L8.499,5.788 Z" id="Page-1"></path>
        </g>
    </g>
</svg>