<?xml version="1.0" encoding="UTF-8" standalone="no"?>
<svg width="22px" height="24px" viewBox="0 0 22 24" version="1.1" xmlns="http://www.w3.org/2000/svg" xmlns:xlink="http://www.w3.org/1999/xlink">
    <!-- Generator: Sketch 49.3 (51167) - http://www.bohemiancoding.com/sketch -->
    <title>3</title>
    <desc>Created with Sketch.</desc>
    <defs></defs>
    <g id="Page-7" stroke="none" stroke-width="1" fill="none" fill-rule="evenodd">
        <g id="Group-58" fill="#999999">
            <path d="M21.982,3.199 C21.945,3.08 21.85,2.99 21.733,2.961 L19.322,2.356 L18.021,0.172 C17.958,0.065 17.845,0 17.725,0 C17.604,0 17.492,0.065 17.428,0.172 L16.127,2.356 L13.716,2.961 C13.599,2.99 13.505,3.08 13.467,3.199 C13.43,3.318 13.455,3.448 13.533,3.544 L15.14,5.498 L14.951,8.056 C14.942,8.18 14.996,8.301 15.093,8.375 C15.191,8.448 15.319,8.464 15.431,8.416 L17.725,7.44 L20.019,8.416 C20.13,8.464 20.258,8.448 20.356,8.375 C20.454,8.301 20.508,8.18 20.498,8.056 L20.309,5.498 L21.916,3.544 C21.994,3.448 22.02,3.318 21.982,3.199 Z M4.883,23.996 L4.863,23.996 C4.863,23.996 4.865,23.997 4.867,23.997 C4.866,23.998 4.866,23.998 4.867,23.998 C4.869,23.998 4.871,23.998 4.873,23.998 C4.875,23.998 4.877,23.998 4.879,23.998 C4.881,23.998 4.881,23.998 4.879,23.997 C4.88,23.997 4.882,23.996 4.883,23.996 Z M3.12,12.848 L0.831,12.848 C0.372,12.848 0,13.245 0,13.734 L0,23.115 C0,23.604 0.372,24.001 0.831,24.001 L3.12,24.001 C3.579,24.001 3.951,23.604 3.951,23.115 L3.951,13.734 C3.951,13.245 3.58,12.848 3.12,12.848 Z M10.709,5.672 C9.523,5.672 8.732,6.735 8.732,8.015 C8.732,8.087 8.726,8.156 8.732,8.225 C8.67,10.618 6.842,12.542 4.667,12.806 L4.651,23.996 L4.863,23.996 C4.863,23.996 4.865,23.995 4.873,23.995 C4.881,23.995 4.883,23.996 4.883,23.996 L15.411,23.995 L15.417,23.995 C15.815,23.995 16.039,23.888 16.401,23.64 C16.746,23.402 17.007,23.077 17.177,22.709 C17.224,22.635 18.858,15.042 18.9,14.592 C18.933,14.111 18.832,13.614 18.578,13.172 C18.179,12.478 17.598,12.198 16.895,12.167 C16.858,12.161 12.642,12.143 12.642,12.143 C12.921,11.281 12.998,10.254 12.998,9.288 C12.998,8.676 12.935,8.065 12.811,7.466 L12.8,7.467 C12.58,6.439 11.729,5.672 10.709,5.672 Z M1.182,22.779 L2.77,22.779 L2.77,14.07 L1.182,14.07 L1.182,22.779 Z M10.709,6.894 C11.156,6.894 11.541,7.238 11.646,7.731 L11.71,8.015 C11.78,8.435 11.816,8.862 11.816,9.288 C11.816,10.335 11.72,11.142 11.521,11.755 L11.002,13.358 L12.637,13.365 C14.214,13.371 16.614,13.383 16.845,13.388 C17.259,13.406 17.422,13.552 17.563,13.796 C17.706,14.047 17.731,14.297 17.723,14.472 C17.616,15.16 16.292,21.332 16.07,22.262 C15.988,22.409 15.878,22.532 15.749,22.621 C15.526,22.773 15.512,22.773 15.41,22.773 L5.834,22.774 L5.847,13.79 C8.162,13.042 9.846,10.827 9.913,8.258 L9.915,8.191 L9.911,8.146 L9.912,8.12 L9.913,8.015 C9.914,7.475 10.163,6.894 10.709,6.894 Z" id="Fill-1"></path>
        </g>
    </g>
</svg>